<?xml version="1.0" encoding="iso-8859-1"?>
<!-- Generator: Adobe Illustrator 19.0.0, SVG Export Plug-In . SVG Version: 6.00 Build 0)  -->
<svg version="1.1" id="Layer_1" xmlns="http://www.w3.org/2000/svg" xmlns:xlink="http://www.w3.org/1999/xlink" x="0px" y="0px"
	 viewBox="0 0 512 512" style="enable-background:new 0 0 512 512;" xml:space="preserve">
<path style="fill:#E6AF78;" d="M335.448,347.948v-47.81H176.552v47.81c0,8.193-5.636,15.309-13.611,17.186L53.706,390.837
	c-15.95,3.752-27.223,17.985-27.223,34.37v77.965c0,4.875,3.953,8.828,8.828,8.828H476.69c4.875,0,8.828-3.953,8.828-8.828v-77.965
	c0-16.386-11.273-30.618-27.223-34.371l-109.235-25.703C341.085,363.257,335.448,356.141,335.448,347.948z"/>
<path style="fill:#0A93E2;" d="M458.294,390.836l-109.235-25.702c-1.65-0.388-3.167-1.047-4.587-1.846L256,414.897l-85.023-54.105
	c-2.201,2.072-4.934,3.613-8.036,4.343L53.706,390.836c-15.95,3.753-27.223,17.986-27.223,34.371v77.965
	c0,4.875,3.953,8.828,8.828,8.828H476.69c4.875,0,8.828-3.953,8.828-8.828v-77.965C485.517,408.822,474.244,394.589,458.294,390.836
	z"/>
<path style="fill:#D5DCEC;" d="M333.72,369.56L256,414.897l-78.467-49.934c5.738,38.237,38.631,67.59,78.467,67.59
	C294.233,432.552,326.138,405.537,333.72,369.56z"/>
<path style="fill:#D29B6E;" d="M176.552,347.948c0,5.927-2.975,11.257-7.625,14.482c104.728,52.467,166.521-51.283,166.521-51.283
	v-11.009H176.552V347.948z"/>
<path style="fill:#F0C087;" d="M141.241,97.103l7.692,169.237c0.718,15.81,8.47,30.472,21.131,39.967l36.501,27.375
	c9.169,6.876,20.319,10.593,31.779,10.593h35.31c11.46,0,22.611-3.717,31.779-10.593l36.5-27.375
	c12.661-9.496,20.413-24.157,21.131-39.967l7.693-169.237H141.241z"/>
<path style="fill:#E6AF78;" d="M141.241,97.103l7.692,169.236c0.718,15.811,8.47,30.472,21.132,39.968l36.5,27.375
	c9.169,6.877,20.319,10.593,31.779,10.593H256c-26.483-8.828-44.138-79.448-44.138-79.448v-96.345
	c0-6.637,5.062-12.093,11.668-12.733c49.448-4.79,105.321-17.207,147.229-46.508V97.103H141.241z"/>
<path style="fill:#5A4146;" d="M123.586,88.276v8.828l8.828,97.103h17.655l17.655-52.966c0,0,114.759,0,176.552-35.31l17.655,88.276
	h17.655l8.828-97.103v-8.828C388.414,39.522,348.892,0,300.138,0h-88.276C163.108,0,123.586,39.522,123.586,88.276z"/>
<path style="fill:#F0C087;" d="M387.859,208.084l-9.97,39.876c-1.181,4.725-5.426,8.039-10.296,8.039l0,0
	c-5.353,0-9.867-3.986-10.531-9.297l-5.098-40.785c-1.362-10.905,7.143-20.538,18.133-20.538h0.034
	C382.019,185.379,390.742,196.552,387.859,208.084z"/>
<path style="fill:#E6AF78;" d="M124.141,208.084l9.97,39.876c1.181,4.725,5.426,8.039,10.296,8.039l0,0
	c5.353,0,9.867-3.986,10.531-9.297l5.098-40.785c1.362-10.905-7.143-20.538-18.133-20.538h-0.034
	C129.981,185.379,121.258,196.552,124.141,208.084z"/>
<g>
	<path style="fill:#0A93E2;" d="M91.289,454.709l-57.203-51.384c-4.793,6.069-7.604,13.707-7.604,21.884v77.964
		c0,4.875,3.953,8.828,8.828,8.828h70.621v-24.456C105.931,475.017,100.608,463.081,91.289,454.709z"/>
	<path style="fill:#0A93E2;" d="M420.711,454.709l57.203-51.384c4.793,6.069,7.604,13.707,7.604,21.884v77.964
		c0,4.875-3.953,8.828-8.828,8.828h-70.621v-24.456C406.069,475.017,411.392,463.081,420.711,454.709z"/>
	<path style="fill:#0A93E2;" d="M256,450.207c49.207,0,89.885-36.823,96.165-84.343l-3.105-0.73
		c-1.65-0.388-3.167-1.047-4.587-1.846l-10.763,6.279c-7.606,35.93-39.55,62.986-77.71,62.986
		c-39.765,0-72.706-29.401-78.463-67.586l-6.56-4.174c-2.201,2.072-4.934,3.613-8.036,4.343l-3.105,0.73
		C166.115,413.384,206.793,450.207,256,450.207z"/>
</g>
<g>
	<path style="fill:#E4EAF6;" d="M175.311,342.277L256,414.897c0,0-22.598,11.407-50.483,34.4
		c-5.752,4.743-14.454,2.822-17.539-3.966l-37.909-83.4l11.992-17.988C165.047,339.464,171.311,338.677,175.311,342.277z"/>
	<path style="fill:#E4EAF6;" d="M336.689,342.277L256,414.897c0,0,22.598,11.407,50.483,34.4c5.752,4.743,14.454,2.822,17.539-3.966
		l37.909-83.4l-11.992-17.988C346.953,339.464,340.689,338.677,336.689,342.277z"/>
</g>
<g>
</g>
<g>
</g>
<g>
</g>
<g>
</g>
<g>
</g>
<g>
</g>
<g>
</g>
<g>
</g>
<g>
</g>
<g>
</g>
<g>
</g>
<g>
</g>
<g>
</g>
<g>
</g>
<g>
</g>
</svg>
