<svg version="1.1" id="Layer_1" xmlns="http://www.w3.org/2000/svg" xlink="http://www.w3.org/1999/xlink" x="0px" y="0px"
	 viewBox="0 0 512 512" style="enable-background:new 0 0 512 512;" space="preserve">
<path style="fill:#ECF1F1;" d="M370.759,97.103c0-24.373,19.765-44.138,44.138-44.138H17.655C7.901,52.966,0,60.866,0,70.621
	v423.724C0,504.099,7.901,512,17.655,512h335.448c9.754,0,17.655-7.901,17.655-17.655V97.103z"/>
<g>
	<path style="fill:#CDCFCF;" d="M485.517,432.552c14.627,0,26.483-11.855,26.483-26.483V88.276V17.655
		C512,7.901,504.099,0,494.345,0H105.931c-9.754,0-17.655,7.901-17.655,17.655v35.31h326.621l0,0
		c24.373,0,44.138,19.756,44.138,44.138l0,0l0,0v308.966C459.034,420.696,470.89,432.552,485.517,432.552"/>
	<path style="fill:#CDCFCF;" d="M414.897,494.345c-4.882,0-8.828-3.955-8.828-8.828V97.103c0-4.873,3.946-8.828,8.828-8.828
		c4.882,0,8.828,3.955,8.828,8.828v388.414C423.724,490.39,419.778,494.345,414.897,494.345"/>
</g>
<polygon style="fill:#8697CB;" points="44.138,273.655 326.621,273.655 326.621,97.103 44.138,97.103 "/>
<g>
	<path style="fill:#B5C3E8;" d="M114.759,273.655H256c-10.302-30.835-37.985-52.966-70.621-52.966S125.06,242.82,114.759,273.655"/>
	<path style="fill:#B5C3E8;" d="M229.517,176.552c0,24.373-19.765,44.138-44.138,44.138s-44.138-19.765-44.138-44.138
		s19.765-44.138,44.138-44.138S229.517,152.179,229.517,176.552"/>
</g>
<g>
	<path style="fill:#CDCFCF;" d="M167.724,326.621H44.138c-4.882,0-8.828-3.955-8.828-8.828c0-4.873,3.946-8.828,8.828-8.828h123.586
		c4.882,0,8.828,3.955,8.828,8.828C176.552,322.666,172.606,326.621,167.724,326.621"/>
	<path style="fill:#CDCFCF;" d="M167.724,370.759H44.138c-4.882,0-8.828-3.955-8.828-8.828s3.946-8.828,8.828-8.828h123.586
		c4.882,0,8.828,3.955,8.828,8.828S172.606,370.759,167.724,370.759"/>
	<path style="fill:#CDCFCF;" d="M326.621,370.759H220.69c-4.882,0-8.828-3.955-8.828-8.828s3.946-8.828,8.828-8.828h105.931
		c4.882,0,8.828,3.955,8.828,8.828S331.502,370.759,326.621,370.759"/>
	<path style="fill:#CDCFCF;" d="M326.621,326.621H220.69c-4.882,0-8.828-3.955-8.828-8.828c0-4.873,3.946-8.828,8.828-8.828h105.931
		c4.882,0,8.828,3.955,8.828,8.828C335.448,322.666,331.502,326.621,326.621,326.621"/>
	<path style="fill:#CDCFCF;" d="M167.724,414.897H44.138c-4.882,0-8.828-3.955-8.828-8.828s3.946-8.828,8.828-8.828h123.586
		c4.882,0,8.828,3.955,8.828,8.828S172.606,414.897,167.724,414.897"/>
	<path style="fill:#CDCFCF;" d="M326.621,414.897H220.69c-4.882,0-8.828-3.955-8.828-8.828s3.946-8.828,8.828-8.828h105.931
		c4.882,0,8.828,3.955,8.828,8.828S331.502,414.897,326.621,414.897"/>
	<path style="fill:#CDCFCF;" d="M167.724,459.034H44.138c-4.882,0-8.828-3.955-8.828-8.828c0-4.873,3.946-8.828,8.828-8.828h123.586
		c4.882,0,8.828,3.955,8.828,8.828C176.552,455.08,172.606,459.034,167.724,459.034"/>
	<path style="fill:#CDCFCF;" d="M326.621,459.034H220.69c-4.882,0-8.828-3.955-8.828-8.828c0-4.873,3.946-8.828,8.828-8.828h105.931
		c4.882,0,8.828,3.955,8.828,8.828C335.448,455.08,331.502,459.034,326.621,459.034"/>
</g>
<g>
</g>
<g>
</g>
<g>
</g>
<g>
</g>
<g>
</g>
<g>
</g>
<g>
</g>
<g>
</g>
<g>
</g>
<g>
</g>
<g>
</g>
<g>
</g>
<g>
</g>
<g>
</g>
<g>
</g>
</svg>