<svg xmlns="http://www.w3.org/2000/svg" xmlns:xlink="http://www.w3.org/1999/xlink" id="Capa_1" enable-background="new 0 0 512 512" height="512" viewBox="0 0 512 512" width="512"><linearGradient id="SVGID_1_" gradientUnits="userSpaceOnUse" x1="256" x2="256" y1="512" y2="2"><stop offset="0" stop-color="#addcff"/><stop offset=".5028" stop-color="#eaf6ff"/><stop offset="1" stop-color="#eaf6ff"/></linearGradient><linearGradient id="SVGID_2_" gradientUnits="userSpaceOnUse" x1="256.001" x2="256.001" y1="452" y2="0"><stop offset="0" stop-color="#5558ff"/><stop offset="1" stop-color="#00c0ff"/></linearGradient><g><path d="m446.604 426.392c-35.857-35.859-55.604-83.535-55.604-134.245v-95.147c0-69.369-52.594-126.676-120-134.162v-47.838c0-8.284-6.716-15-15-15s-15 6.716-15 15v47.838c-67.406 7.486-120 64.793-120 134.162v95.147c0 50.71-19.747 98.385-55.604 134.244-9.283 9.276-2.944 25.609 10.604 25.609h360c13.51 0 19.911-16.308 10.604-25.608z" fill="url(#SVGID_2_)"/></g></svg>