<?xml version="1.0" encoding="iso-8859-1"?>
<!-- Generator: Adobe Illustrator 19.0.0, SVG Export Plug-In . SVG Version: 6.00 Build 0)  -->
<svg version="1.1" id="Capa_1" xmlns="http://www.w3.org/2000/svg" xmlns:xlink="http://www.w3.org/1999/xlink" x="0px" y="0px"
	 viewBox="0 0 512 512" style="enable-background:new 0 0 512 512;" xml:space="preserve">
<path style="fill:#2196F3;" d="M384,0H128c-17.673,0-32,14.327-32,32v464c0.005,8.837,7.172,15.996,16.008,15.992
	c3.151-0.002,6.232-0.934,8.856-2.68L256,419.2l135.136,90.08c7.357,4.896,17.289,2.9,22.184-4.456
	c1.74-2.615,2.672-5.683,2.68-8.824V32C416,14.327,401.673,0,384,0z"/>
<polygon style="fill:#FAFAFA;" points="256,202.144 216.448,224 224,177.696 192,144.896 236.224,138.144 256,96 275.776,138.144 
	320,144.896 288,177.696 295.552,224 "/>
<path d="M400,512c-3.155-0.002-6.239-0.938-8.864-2.688L256,419.2l-135.136,90.112c-7.357,4.895-17.289,2.9-22.184-4.456
	c-1.746-2.624-2.678-5.704-2.68-8.856V32c0-17.673,14.327-32,32-32h256c17.673,0,32,14.327,32,32v464
	c0.002,5.902-3.245,11.326-8.448,14.112C405.226,511.346,402.633,511.994,400,512z M256,384c3.155,0.002,6.239,0.938,8.864,2.688
	L384,466.112V32H128v434.112l119.136-79.424C249.761,384.938,252.845,384.002,256,384z"/>
<path d="M295.552,240c-2.706-0.005-5.369-0.687-7.744-1.984L256,220.416l-31.808,17.6c-7.736,4.271-17.469,1.462-21.74-6.275
	c-1.737-3.147-2.364-6.787-1.78-10.333l6.4-38.4L180.704,156c-6.165-6.331-6.031-16.46,0.3-22.625
	c2.385-2.322,5.435-3.843,8.724-4.351l35.776-5.472l16-34.4c4.548-8.006,14.725-10.809,22.731-6.261
	c2.613,1.484,4.776,3.648,6.261,6.261l16.16,34.4l35.776,5.472c8.733,1.347,14.721,9.518,13.375,18.252
	c-0.507,3.29-2.028,6.34-4.351,8.724l-26.368,27.008l6.24,38.4c1.432,8.72-4.477,16.949-13.197,18.381
	C297.279,239.929,296.416,239.999,295.552,240L295.552,240z M256,186.144c2.706,0.005,5.369,0.687,7.744,1.984l10.72,5.92
	l-2.272-13.792c-0.85-5.049,0.768-10.2,4.352-13.856l10.24-10.528l-13.44-2.048c-5.263-0.818-9.773-4.201-12.032-9.024L256,133.664
	l-5.312,11.264c-2.259,4.823-6.769,8.206-12.032,9.024L225.216,156l10.24,10.528c3.544,3.628,5.159,8.721,4.352,13.728
	l-2.272,13.792l10.72-5.92C250.631,186.831,253.294,186.149,256,186.144z"/>
<g>
</g>
<g>
</g>
<g>
</g>
<g>
</g>
<g>
</g>
<g>
</g>
<g>
</g>
<g>
</g>
<g>
</g>
<g>
</g>
<g>
</g>
<g>
</g>
<g>
</g>
<g>
</g>
<g>
</g>
</svg>
